<mxfile host="app.diagrams.net" modified="2023-08-08T06:20:12.136Z" agent="Mozilla/5.0 (Macintosh; Intel Mac OS X 10.15; rv:109.0) Gecko/20100101 Firefox/115.0" version="21.6.6" etag="XYcvH-JpddENjqLiL9uo" type="github">
  <diagram name="Page-1" id="K5KlrNgrCAhDl97TSb7u">
    <mxGraphModel>
      <root>
        <mxCell id="0" />
        <mxCell id="1" parent="0" />
      </root>
    </mxGraphModel>
  </diagram>
</mxfile>
